<svg width="142" height="42" viewBox="0 0 142 42" fill="none" xmlns="http://www.w3.org/2000/svg">
<path d="M72.4751 32.72C71.7951 32.72 71.1631 32.912 70.7231 33.264L71.0431 33.84C71.3711 33.56 71.8831 33.384 72.3871 33.384C73.1471 33.384 73.5231 33.76 73.5231 34.408V34.56H72.3071C71.0431 34.56 70.6031 35.12 70.6031 35.8C70.6031 36.536 71.2111 37.048 72.1711 37.048C72.8351 37.048 73.3071 36.824 73.5631 36.44V37H74.2911V34.44C74.2911 33.28 73.6351 32.72 72.4751 32.72ZM72.2991 36.456C71.7151 36.456 71.3631 36.192 71.3631 35.768C71.3631 35.408 71.5791 35.112 72.3391 35.112H73.5231V35.704C73.3311 36.192 72.8751 36.456 72.2991 36.456ZM83.9328 37L83.9248 31.4H83.2688L80.9648 35.336L78.6288 31.4H77.9728V37H78.7408V32.944L80.7648 36.32H81.1328L83.1568 32.92L83.1648 37H83.9328ZM85.8854 31.944C86.1894 31.944 86.4054 31.72 86.4054 31.432C86.4054 31.16 86.1814 30.944 85.8854 30.944C85.5894 30.944 85.3654 31.168 85.3654 31.448C85.3654 31.728 85.5894 31.944 85.8854 31.944ZM85.5014 37H86.2694V32.76H85.5014V37ZM89.8798 36.2C89.7198 36.328 89.5038 36.4 89.2798 36.4C88.8558 36.4 88.6158 36.144 88.6158 35.688V33.392H89.8318V32.76H88.6158V31.832H87.8478V32.76H87.1278V33.392H87.8478V35.72C87.8478 36.576 88.3358 37.048 89.1918 37.048C89.5358 37.048 89.8878 36.952 90.1198 36.752L89.8798 36.2ZM94.2357 32.76V33.416C93.8757 32.952 93.2997 32.72 92.6677 32.72C91.4437 32.72 90.5157 33.544 90.5157 34.768C90.5157 35.992 91.4437 36.824 92.6677 36.824C93.2757 36.824 93.8277 36.608 94.1957 36.168V36.504C94.1957 37.464 93.7397 37.928 92.7397 37.928C92.1157 37.928 91.4997 37.712 91.1077 37.376L90.7397 37.968C91.2037 38.384 91.9877 38.6 92.7637 38.6C94.2037 38.6 94.9637 37.92 94.9637 36.424V32.76H94.2357ZM92.7557 36.152C91.8997 36.152 91.2917 35.584 91.2917 34.768C91.2917 33.944 91.8997 33.392 92.7557 33.392C93.6037 33.392 94.2117 33.944 94.2117 34.768C94.2117 35.584 93.6037 36.152 92.7557 36.152ZM98.2471 37.048C99.5191 37.048 100.447 36.144 100.447 34.88C100.447 33.616 99.5191 32.72 98.2471 32.72C96.9751 32.72 96.0391 33.616 96.0391 34.88C96.0391 36.144 96.9751 37.048 98.2471 37.048ZM98.2471 36.376C97.4311 36.376 96.8151 35.784 96.8151 34.88C96.8151 33.976 97.4311 33.392 98.2471 33.392C99.0631 33.392 99.6711 33.976 99.6711 34.88C99.6711 35.784 99.0631 36.376 98.2471 36.376ZM105.506 37.048C106.266 37.048 106.898 36.728 107.234 36.136L106.65 35.768C106.378 36.184 105.962 36.376 105.498 36.376C104.666 36.376 104.042 35.8 104.042 34.88C104.042 33.976 104.666 33.392 105.498 33.392C105.962 33.392 106.378 33.584 106.65 34L107.234 33.624C106.898 33.032 106.266 32.72 105.506 32.72C104.202 32.72 103.266 33.616 103.266 34.88C103.266 36.144 104.202 37.048 105.506 37.048ZM109.982 37.048C111.254 37.048 112.182 36.144 112.182 34.88C112.182 33.616 111.254 32.72 109.982 32.72C108.71 32.72 107.774 33.616 107.774 34.88C107.774 36.144 108.71 37.048 109.982 37.048ZM109.982 36.376C109.166 36.376 108.55 35.784 108.55 34.88C108.55 33.976 109.166 33.392 109.982 33.392C110.798 33.392 111.406 33.976 111.406 34.88C111.406 35.784 110.798 36.376 109.982 36.376ZM118.548 32.72C117.828 32.72 117.236 33.024 116.916 33.504C116.636 32.976 116.092 32.72 115.444 32.72C114.804 32.72 114.284 32.96 113.98 33.392V32.76H113.244V37H114.012V34.816C114.012 33.896 114.516 33.408 115.284 33.408C115.98 33.408 116.38 33.816 116.38 34.648V37H117.148V34.816C117.148 33.896 117.652 33.408 118.42 33.408C119.116 33.408 119.516 33.816 119.516 34.648V37H120.284V34.56C120.284 33.312 119.58 32.72 118.548 32.72ZM123.945 32.72C123.321 32.72 122.777 32.96 122.433 33.432V32.76H121.697V38.552H122.465V36.36C122.817 36.816 123.345 37.048 123.945 37.048C125.185 37.048 126.089 36.184 126.089 34.88C126.089 33.584 125.185 32.72 123.945 32.72ZM123.881 36.376C123.073 36.376 122.457 35.784 122.457 34.88C122.457 33.984 123.073 33.392 123.881 33.392C124.697 33.392 125.313 33.984 125.313 34.88C125.313 35.784 124.697 36.376 123.881 36.376ZM128.655 32.72C127.975 32.72 127.343 32.912 126.903 33.264L127.223 33.84C127.551 33.56 128.063 33.384 128.567 33.384C129.327 33.384 129.703 33.76 129.703 34.408V34.56H128.487C127.223 34.56 126.783 35.12 126.783 35.8C126.783 36.536 127.391 37.048 128.351 37.048C129.015 37.048 129.487 36.824 129.743 36.44V37H130.471V34.44C130.471 33.28 129.815 32.72 128.655 32.72ZM128.479 36.456C127.895 36.456 127.543 36.192 127.543 35.768C127.543 35.408 127.759 35.112 128.519 35.112H129.703V35.704C129.511 36.192 129.055 36.456 128.479 36.456ZM134.156 32.72C133.484 32.72 132.94 32.968 132.628 33.4V32.76H131.892V37H132.66V34.816C132.66 33.896 133.188 33.408 134.004 33.408C134.732 33.408 135.148 33.816 135.148 34.648V37H135.916V34.56C135.916 33.312 135.188 32.72 134.156 32.72ZM140.259 32.76L138.795 36.152L137.315 32.76H136.515L138.387 36.992L138.251 37.288C138.043 37.776 137.811 37.944 137.443 37.944C137.155 37.944 136.891 37.832 136.683 37.632L136.355 38.208C136.619 38.464 137.035 38.6 137.443 38.6C138.091 38.6 138.579 38.32 138.955 37.424L141.011 32.76H140.259Z" fill="white"/>
<path d="M29.1755 11.3187C29.1755 7.66092 26.9982 4.17728 23.3839 2.69673C22.2082 2.21773 20.9889 2 19.7697 2C17.8972 2 16.0683 2.56609 14.5442 3.56764C13.0637 2.56609 11.2783 2 9.36229 2C8.7091 2 8.01237 2.08709 7.31565 2.21773C3.83201 2.958 1.04509 5.65782 0.217728 9.09792V9.18501C0.087091 9.79465 0 10.4478 0 11.0575C0 12.4074 0.304819 13.7137 0.783819 14.8895L5.48673 26.6032C6.18346 28.3886 7.57692 29.8691 9.49292 30.5659C10.1897 30.8271 10.8864 30.9578 11.6267 31.0013H27.9127L24.9951 23.2938L28.4788 14.8895C28.9142 13.7137 29.1755 12.4945 29.1755 11.3187ZM3.09173 11.0575C3.09173 10.6656 3.13528 10.2301 3.22237 9.83819V9.7511C3.74491 7.53028 5.66092 5.65782 7.92528 5.22237C8.40428 5.13528 8.88329 5.09173 9.31874 5.09173C10.3638 5.09173 11.3218 5.353 12.1927 5.78846C11.7573 6.3981 11.3654 7.00773 11.0606 7.74801L6.09637 19.9408L3.61428 13.7573C3.30946 12.8428 3.09173 11.9284 3.09173 11.0575ZM25.5612 13.7137L21.5986 23.2502L23.3839 27.9531H11.7573C11.3654 27.9531 10.9735 27.866 10.5816 27.6919C9.01392 27.1258 8.09947 25.6452 8.09947 24.1211C8.09947 23.6857 8.18656 23.2067 8.36074 22.7277L13.9781 8.92374C14.9797 6.52873 17.3311 5.09173 19.8132 5.09173C20.597 5.09173 21.4244 5.22237 22.2082 5.57073C24.6468 6.57228 26.0838 8.88019 26.0838 11.3187C26.0402 12.1026 25.9096 12.9299 25.5612 13.7137Z" fill="url(#paint0_linear_816_51072)"/>
<path fill-rule="evenodd" clip-rule="evenodd" d="M56.6088 25.5583V18.112C56.6088 14.0623 53.9525 12.4946 50.3818 12.5382C47.769 12.5382 45.6789 13.6704 44.895 14.4542C45.0257 15.4122 45.5918 16.1525 46.3756 16.5444C47.1594 15.9347 48.5093 15.3251 50.164 15.3251C52.3413 15.3251 53.43 16.2831 53.43 17.9378V18.7217C52.472 18.3733 51.3833 18.1991 50.077 18.1991C46.7675 18.1991 44.329 19.6797 44.329 22.5101C44.329 25.2099 46.332 26.9082 50.3382 26.9082C52.6026 26.9082 54.9976 26.3421 56.6088 25.5583ZM53.43 23.9471C52.5591 24.2084 51.6446 24.3826 50.5995 24.3826C48.5964 24.3826 47.6384 23.5552 47.6384 22.2924C47.6384 21.0296 48.727 20.4635 50.3382 20.4635C51.4704 20.4635 52.5591 20.6377 53.43 21.0296V23.9471ZM65.4921 26.8647C69.2805 26.8647 72.6771 24.1648 72.6771 19.5926C72.6771 14.8897 69.5418 12.4946 65.3614 12.4946C62.7923 12.4946 60.615 13.4962 59.3086 14.5848V30.8709C59.9182 30.9579 60.3972 31.0015 60.9633 31.0015H60.9634C61.5294 31.0015 62.052 31.0015 62.5745 30.8709V26.4728C63.4454 26.734 64.3599 26.8647 65.4921 26.8647ZM65.2308 15.4557C67.7129 15.4557 69.4112 17.0234 69.4112 19.6361C69.4112 22.3359 67.7129 23.9907 65.2743 23.9907C64.2292 23.9907 63.3583 23.8165 62.5745 23.4246V16.1089C63.4019 15.6735 64.2728 15.4557 65.2308 15.4557ZM84.8263 26.5598C85.3924 26.5598 85.9149 26.5598 86.4375 26.4292V13.2349L78.3815 13.1914V12.9736C78.3815 10.8835 79.6444 10.0996 81.2991 10.0996C82.649 10.0996 83.3457 10.448 84.2166 11.0576C84.9134 10.7528 85.5666 9.70773 85.6536 8.83682C84.9134 8.18364 83.4764 7.39982 81.1685 7.39982C78.1203 7.39982 75.2463 9.14164 75.1592 13.1914H73.3303C73.2432 13.5833 73.1996 13.9752 73.1996 14.4107C73.1996 14.6948 73.2367 14.9233 73.2746 15.1567C73.2947 15.281 73.3151 15.4066 73.3303 15.5428H75.1592V26.4292C75.7688 26.5163 76.2478 26.5598 76.8139 26.5598C77.3365 26.5598 77.859 26.5163 78.3815 26.4292V15.4993L83.1716 15.5428V26.4292C83.7376 26.5163 84.3037 26.5598 84.8263 26.5598ZM90.2259 7.61755V26.4292C90.792 26.5598 91.3146 26.5598 91.8371 26.5598C92.4032 26.5598 92.9693 26.5598 93.4918 26.4292V7.61755C92.9693 7.53046 92.4032 7.48691 91.8371 7.48691C91.271 7.48691 90.7485 7.48691 90.2259 7.61755ZM98.8915 6.70309C97.7158 6.70309 96.7578 7.61755 96.7578 8.74973C96.7578 9.88192 97.7158 10.7964 98.8915 10.7964C99.9801 10.7964 100.938 9.88192 100.938 8.74973C100.938 7.61755 100.024 6.70309 98.8915 6.70309ZM97.2803 12.8866V26.4292C97.8028 26.5598 98.3689 26.5598 98.935 26.5598C99.5011 26.5598 100.024 26.5598 100.546 26.4292V12.8866C100.024 12.7995 99.4576 12.7559 98.935 12.7559C98.3689 12.7559 97.8464 12.7559 97.2803 12.8866ZM115.569 25.5583V18.112C115.569 14.0623 112.913 12.4946 109.342 12.5382C106.73 12.5382 104.639 13.6704 103.856 14.4542C103.986 15.4122 104.552 16.1525 105.336 16.5444C106.12 15.9347 107.47 15.3251 109.125 15.3251C111.302 15.3251 112.391 16.2831 112.391 17.9378V18.7217C111.433 18.3733 110.344 18.1991 109.038 18.1991C105.728 18.1991 103.29 19.6797 103.29 22.5101C103.29 25.2099 105.293 26.9082 109.299 26.9082C111.563 26.9082 113.958 26.3421 115.569 25.5583ZM112.391 23.9471C111.52 24.2084 110.605 24.3826 109.56 24.3826C107.557 24.3826 106.599 23.5552 106.599 22.2924C106.599 21.0296 107.688 20.4635 109.299 20.4635C110.431 20.4635 111.52 20.6377 112.391 21.0296V23.9471ZM123.756 26.8647C125.628 26.8647 127.022 26.0808 127.849 25.3841C127.762 24.4697 127.153 23.5552 126.456 23.1198C126.02 23.5117 125.149 24.0342 124.191 24.0342C122.842 24.0342 121.884 23.5117 121.884 21.5086V15.6735H126.978C127.065 15.1945 127.109 14.8026 127.109 14.3236V14.3235C127.109 13.8881 127.109 13.4526 126.978 13.0172H121.884V9.40292C121.361 9.31582 120.882 9.27228 120.316 9.27228C119.75 9.27228 119.227 9.27228 118.661 9.40292V13.0172H116.353C116.266 13.4526 116.223 13.8881 116.223 14.3236C116.223 14.8026 116.266 15.238 116.353 15.6735H118.661V22.2924C118.661 25.5583 120.838 26.8647 123.756 26.8647ZM131.289 20.5506H140.913C141 19.7668 141 19.3314 141 18.6347V18.6346C141 14.9767 138.431 12.4946 134.773 12.4946C130.897 12.4946 127.936 15.5428 127.936 19.7667C127.936 24.2084 130.854 26.9082 134.947 26.9082C137.691 26.9082 139.476 25.9067 140.608 24.9922C140.521 24.1648 139.911 23.2504 139.215 22.7714C138.344 23.381 137.168 24.1648 135.208 24.1648C132.944 24.1648 131.551 22.7714 131.289 20.5506ZM134.773 15.1074C136.994 15.1509 137.821 16.7621 137.821 18.3733H131.289C131.551 16.5008 132.77 15.1074 134.773 15.1074ZM41.2373 10.9703H46.8111C46.9418 10.4477 46.9853 10.0123 46.9853 9.48974C46.9853 8.96719 46.9418 8.48819 46.8111 8.00919H32.3976C32.2669 8.53173 32.2234 8.96719 32.2234 9.48974C32.2234 10.0123 32.2669 10.4913 32.3976 10.9703H37.9714V26.4725C38.012 26.4787 38.0525 26.485 38.0927 26.4912C38.6125 26.5716 39.0976 26.6467 39.5826 26.6467C40.1236 26.6467 40.5618 26.5781 41.0492 26.5018C41.111 26.4921 41.1736 26.4823 41.2373 26.4725V10.9703Z" fill="white"/>
<defs>
<linearGradient id="paint0_linear_816_51072" x1="0.594397" y1="34.8124" x2="31.0061" y2="-0.277866" gradientUnits="userSpaceOnUse">
<stop stop-color="#2FDFBF"/>
<stop offset="1" stop-color="#2F74FF"/>
</linearGradient>
</defs>
</svg>
