<svg xmlns="http://www.w3.org/2000/svg" width="200" height="200" viewBox="0 0 200 200" version="1.1"><path d="M 132.500 19.067 C 130.300 19.544, 126.109 20.437, 123.187 21.053 C 111.155 23.587, 108 30.331, 108 53.521 L 108 68.233 105.750 67.477 C 104.513 67.061, 98.986 66.521, 93.470 66.276 C 75.829 65.493, 65.325 70.662, 57.225 84.114 C 50.223 95.745, 46.766 115.211, 48.860 131.219 C 50.920 146.957, 55.265 156.700, 63.928 165 C 67.085 168.025, 71.835 171.578, 74.483 172.895 C 84.513 177.883, 99.827 179.148, 119 176.573 C 132.157 174.806, 136.749 173.254, 139.404 169.677 C 141.481 166.881, 141.503 166.177, 141.781 94.030 C 142.105 9.991, 142.949 16.804, 132.500 19.067 M 90.044 96.210 C 84.525 99.960, 82.553 104.999, 82.153 116.366 C 81.362 138.835, 89.419 149.466, 104.892 146.372 L 108.033 145.743 107.767 120.122 L 107.500 94.500 100.457 94.210 C 94.474 93.964, 92.906 94.265, 90.044 96.210" stroke="none" fill="#f0ecea" fill-rule="evenodd"/><path d="M -0 100.005 L -0 200.010 100.250 199.755 L 200.500 199.500 200.755 99.750 L 201.010 0 100.505 0 L 0 0 -0 100.005 M 0.481 100.500 C 0.481 155.500, 0.602 178.147, 0.750 150.826 C 0.898 123.506, 0.898 78.506, 0.750 50.826 C 0.602 23.147, 0.481 45.500, 0.481 100.500 M 132.500 19.067 C 130.300 19.544, 126.109 20.437, 123.187 21.053 C 111.155 23.587, 108 30.331, 108 53.521 L 108 68.233 105.750 67.477 C 104.513 67.061, 98.986 66.521, 93.470 66.276 C 75.829 65.493, 65.325 70.662, 57.225 84.114 C 50.223 95.745, 46.766 115.211, 48.860 131.219 C 50.920 146.957, 55.265 156.700, 63.928 165 C 67.085 168.025, 71.835 171.578, 74.483 172.895 C 84.513 177.883, 99.827 179.148, 119 176.573 C 132.157 174.806, 136.749 173.254, 139.404 169.677 C 141.481 166.881, 141.503 166.177, 141.781 94.030 C 142.105 9.991, 142.949 16.804, 132.500 19.067 M 90.044 96.210 C 84.525 99.960, 82.553 104.999, 82.153 116.366 C 81.362 138.835, 89.419 149.466, 104.892 146.372 L 108.033 145.743 107.767 120.122 L 107.500 94.500 100.457 94.210 C 94.474 93.964, 92.906 94.265, 90.044 96.210" stroke="none" fill="#eb5c44" fill-rule="evenodd"/></svg>